# xmcd
#
# Track frame offsets: 
#        150
#        12757
#        24592
#        37160
#        50122
#        62712
#        74575
#        87372
#        103540
#        125707
#
# Disc length: 1872 seconds
#
# Revision: 6
# Processed by: cddbd v1.5.2PL0 Copyright (c) Steve Scherf et al.
# Submitted via: ExactAudioCopy v0.95b4
#
DISCID=8f074e0a
DTITLE=Various Artist - Motown Legends Vol. 5
DYEAR=1900
DGENRE=
TTITLE0=Mary Wells - Two Lovers
TTITLE1=Dianna Ross and The Supremes - Baby Love
TTITLE2=Smokey Robinson and The Miricles - Ooo Baby Baby
TTITLE3=Dianna Ross and The Supremes - Back In My Arms Again
TTITLE4=Dianna Ross and The Supremes - You Can't Hurry Love
TTITLE5=Stevie Wonder - I Was Made To Love Her
TTITLE6=Marvin Gaye and Tammi Terrell - You're All I Need To Get By
TTITLE7=The Temptations - I Could Never Love Another (After Loving You
TTITLE7=)
TTITLE8=The Temptations - Runaway Child, Running Wild
TTITLE9=Marvin Gaye - I Heard It Through The Grapevine
EXTD=
EXTT0=
EXTT1=
EXTT2=
EXTT3=
EXTT4=
EXTT5=
EXTT6=
EXTT7=
EXTT8=
EXTT9=
PLAYORDER=
